<?xml version="1.0" encoding="utf-8"?>
<!-- Generator: Adobe Illustrator 16.0.0, SVG Export Plug-In . SVG Version: 6.00 Build 0)  -->
<!DOCTYPE svg PUBLIC "-//W3C//DTD SVG 1.1//EN" "http://www.w3.org/Graphics/SVG/1.1/DTD/svg11.dtd">
<svg version="1.1" id="图层_1" xmlns="http://www.w3.org/2000/svg" xmlns:xlink="http://www.w3.org/1999/xlink" x="0px" y="0px"
	 width="68.03px" height="68.03px" viewBox="0 0 68.03 68.03" enable-background="new 0 0 68.03 68.03" xml:space="preserve">
<path fill="#FFFFFF" d="M8.94,22.928c-2.35,0-4.251,1.826-4.251,4.074l0.003,15.598c0,2.257,1.905,4.077,4.251,4.077
	c2.349,0,4.254-1.823,4.251-4.077V27.002C13.192,24.754,11.287,22.925,8.94,22.928 M42.881,6.953l2.968-5.194
	c0.157-0.27,0.054-0.616-0.233-0.771c-0.29-0.146-0.647-0.048-0.799,0.228l-2.997,5.248c-2.523-1.075-5.346-1.68-8.331-1.677
	c-2.977-0.002-5.799,0.6-8.312,1.668l-2.999-5.233c-0.155-0.276-0.515-0.377-0.799-0.228c-0.287,0.149-0.394,0.498-0.233,0.768
	l2.968,5.188c-5.833,2.884-9.093,8.376-9.088,14.678l36.931-0.003C51.957,15.323,48.704,9.842,42.881,6.953 M24.781,15.143
	c-0.883-0.003-1.601-0.689-1.601-1.539c0-0.847,0.718-1.542,1.601-1.542c0.889,0,1.606,0.695,1.606,1.542
	C26.387,14.451,25.67,15.14,24.781,15.143 M42.217,15.301c-0.887,0.003-1.606-0.687-1.606-1.539c0.002-0.841,0.72-1.539,1.606-1.542
	c0.88,0.003,1.604,0.701,1.601,1.545C43.82,14.614,43.1,15.301,42.217,15.301 M15.012,23.046l0.005,25.956
	c-0.003,2.405,2.029,4.347,4.536,4.347l2.24,0.003l0.002,9.682c0,2.245,1.905,4.074,4.249,4.074c2.35,0,4.932-1.829,4.932-4.077
	l-0.002-9.682h5.059l0.003,9.682c0,2.245,1.907,4.077,4.248,4.071c2.35,0.003,4.764-1.826,4.764-4.077l-0.003-9.676l2.42-0.003
	c2.501,0,4.538-1.944,4.538-4.35l-0.006-25.955L15.012,23.046z M62.309,26.997c0-2.251-1.905-4.074-4.252-4.074
	C55.71,22.92,53.809,24.749,53.809,27l0.003,15.759c0,2.253,1.901,4.073,4.251,4.076c2.347,0,4.248-1.823,4.248-4.076L62.309,26.997
	z"/>
</svg>
