<?xml version="1.0" encoding="utf-8"?>
<!-- Generator: Adobe Illustrator 16.0.0, SVG Export Plug-In . SVG Version: 6.00 Build 0)  -->
<!DOCTYPE svg PUBLIC "-//W3C//DTD SVG 1.1//EN" "http://www.w3.org/Graphics/SVG/1.1/DTD/svg11.dtd">
<svg version="1.1" id="图层_1" xmlns="http://www.w3.org/2000/svg" xmlns:xlink="http://www.w3.org/1999/xlink" x="0px" y="0px"
	 width="56.69px" height="68.03px" viewBox="0 0 56.69 68.03" enable-background="new 0 0 56.69 68.03" xml:space="preserve">
<g>
	<g>
		<path fill="#FFFFFF" d="M47.221,35.479c0-9.012,7.191-12.761,7.191-12.761s-5.09-6.844-11.968-6.844
			c-6.555,0-8.909,3.026-13.366,3.026c-3.884,0-6.431-3.026-12.033-3.026c-5.729,0-16.806,5.592-16.806,21.052
			c0,10.723,8.721,30.46,18.08,30.46c6.238,0,5.029-2.961,11.586-2.961c6.302,0,6.109,2.964,10.949,2.964
			c8.213,0,15.471-17.766,15.471-17.766S47.221,45.875,47.221,35.479z M40.474,0.087C25.958,2.981,27.422,16.272,27.422,16.272
			C42.001,15.415,40.474,0.087,40.474,0.087z"/>
	</g>
</g>
</svg>
