<?xml version="1.0" encoding="utf-8"?>
<!-- Generator: Adobe Illustrator 16.0.0, SVG Export Plug-In . SVG Version: 6.00 Build 0)  -->
<!DOCTYPE svg PUBLIC "-//W3C//DTD SVG 1.1//EN" "http://www.w3.org/Graphics/SVG/1.1/DTD/svg11.dtd">
<svg version="1.1" id="图层_1" xmlns="http://www.w3.org/2000/svg" xmlns:xlink="http://www.w3.org/1999/xlink" x="0px" y="0px"
	 width="230px" height="215px" viewBox="0 0 230 215" enable-background="new 0 0 230 215" xml:space="preserve">
<g>
	<g>
		<path fill="#FF8903" d="M123.284,68.879c0,0-3.697,8,0,14.302c0,0,1.713,4.812,14.575,3.575v-3.575
			C137.859,83.181,139.035,70.41,123.284,68.879z M206.896,77.468h-12.005V62.025c0-0.947-0.764-1.717-1.715-1.717h-3.429
			c-0.951,0-1.715,0.77-1.715,1.717V82.62c0,0.952,0.767,1.714,1.715,1.714h17.148c0.952,0,1.715-0.765,1.715-1.714v-3.435
			C208.61,78.233,207.845,77.468,206.896,77.468z M0.254,0.038L0.25,0.508l229.501,214.453V0.038H0.254z M214.373,43.857
			c4.938-0.909,3.644,3.577,3.644,3.577c0.015,0.382-0.079,0.676-0.16,0.986c-1.874-1.507-3.878-2.863-6.017-4.007
			C213.233,44.004,214.373,43.857,214.373,43.857z M134.215,93.907v7.145c-0.677,3.873-3.639,3.572-3.639,3.572h-10.932
			c-3.39-0.466-3.644-3.572-3.644-3.572V72.456c2.938-10.749,14.575-17.876,14.575-17.876c0.708-2.793-3.645-3.577-3.645-3.577
			c-5.826-0.296-3.645-7.147-3.645-7.147c7.387-2.555,7.291,3.578,7.291,3.578h3.64c4.074-15.985,14.573-21.451,14.573-21.451h43.72
			c5.866,5.579,9.59,11.244,11.817,15.352c-1.984-0.58-4.022-1-6.112-1.263c-1.545-2.829-3.43-5.396-5.708-6.938
			c0,0-36.673-1.398-43.719,0c0,0-11.405,7.01-10.93,21.449h24.503c-4.061,5.082-6.868,11.188-8.018,17.876H141.5
			c0.487,2.911,1.195,5.255,1.989,7.143h10.263c0.013,1.206,0.062,2.401,0.18,3.58h-8.528c1.772,2.642,3.386,3.575,3.386,3.575
			h5.687c0.476,2.474,1.195,4.858,2.118,7.152H134.215z M193.173,111.793c-17.993,0-32.584-14.602-32.584-32.608
			c0-18.004,14.591-32.608,32.584-32.608c17.995,0,32.587,14.602,32.587,32.608C225.76,97.193,211.168,111.793,193.173,111.793z"/>
	</g>
</g>
</svg>
