<?xml version="1.0" encoding="utf-8"?>
<!-- Generator: Adobe Illustrator 15.0.0, SVG Export Plug-In . SVG Version: 6.00 Build 0)  -->
<!DOCTYPE svg PUBLIC "-//W3C//DTD SVG 1.1//EN" "http://www.w3.org/Graphics/SVG/1.1/DTD/svg11.dtd">
<svg version="1.1" id="图层_1" xmlns="http://www.w3.org/2000/svg" xmlns:xlink="http://www.w3.org/1999/xlink" x="0px" y="0px"
	 width="28.229px" height="10.797px" viewBox="0 0 28.229 10.797" enable-background="new 0 0 28.229 10.797" xml:space="preserve">
<path fill="#E71F19" d="M24.326,7.14c-0.149,0.416-0.256,0.471-0.346,0.51c0,0-0.555,0.105-1.37,0.214c0,0-0.013,0.002-0.024,0.002
	c0.007-0.065,0.018-0.129,0.018-0.195c0-0.947-0.732-1.713-1.639-1.713c-0.904,0-1.639,0.767-1.639,1.713
	c0,0.054,0.011,0.104,0.016,0.153c-0.022,0.021-0.043,0.032-0.054,0.036l-9.288,0.035L9.973,7.889
	C9.982,7.815,9.995,7.744,9.995,7.67c0-0.948-0.734-1.714-1.639-1.714c-0.905,0-1.639,0.767-1.639,1.714
	c0,0.042,0.008,0.08,0.012,0.121C6.718,7.793,6.717,7.795,6.701,7.795c0,0-1.741-0.072-2.032-0.143c0,0-0.208-0.206-0.229-0.465
	c0,0-0.022-0.193-0.013-0.407l0.247-0.516L4.645,6.231L4.634,5.654l0.032-0.029c0,0-0.032-0.029-0.038-0.285
	C4.623,5.086,4.631,4.579,4.743,4.279c0,0,0.083-0.553,0.352-1.092c0.27-0.539,0.58-0.971,0.58-0.971L5.656,2.199
	c0,0-0.063-0.165-0.057-0.222C5.605,1.92,5.817,1.875,5.981,1.847l0.2-0.002c0,0,0.083-0.033,0.255-0.039
	c0.173-0.006,0.27-0.015,0.27-0.015s0.121-0.024,0.198-0.034L6.961,1.75c0,0,1.938-0.112,3.36-0.112
	c1.424,0,4.204,0.056,5.362,0.189c0,0,1.039,0.133,1.399,0.222l0.068,0.005c0,0,0.033,0.021,0.052,0.063
	c0,0,1.902,1.149,2.771,1.729c0,0,0.266-0.004,0.591,0.048c0,0,2.438,0.566,2.864,0.776c0.426,0.209,0.48,0.388,0.48,0.388
	l0.271,0.706l-0.01,0.082c0,0,0.184,0.182,0.25,0.3C24.417,6.144,24.477,6.723,24.326,7.14z M7.347,2.153
	C6.716,2.211,6.52,2.237,6.203,2.509c0,0-0.5,0.555-0.751,1.154c0,0,0.119,0.346,0.209,0.45C5.753,4.218,5.763,4.234,6.004,4.25
	c0.24,0.014,3.157,0.094,3.157,0.094S9.319,3.367,9.409,2.9C9.5,2.434,9.612,2.067,9.612,2.067S7.979,2.095,7.347,2.153z
	 M13.944,2.118c0,0-1.271-0.069-1.986-0.069c-0.715,0-1.788,0.007-1.788,0.007s-0.088,0.338-0.164,1.15
	C9.93,4.02,9.921,4.371,9.921,4.371l4.207,0.147c0,0,0.125-0.002,0.157-0.128l-0.081-2.019C14.203,2.37,14.237,2.154,13.944,2.118z
	 M18.052,3.516c-0.095-0.083-0.843-0.629-1.173-0.828c-0.33-0.2-0.581-0.256-0.797-0.293c-0.215-0.037-1.192-0.131-1.192-0.131
	c-0.215-0.016-0.19,0.142-0.19,0.142l0.336,1.998C15.075,4.42,15.2,4.429,15.2,4.429l2.812,0.095l-0.015-0.152
	c0,0,0.021-0.356,0.055-0.46c0.035-0.104,0.17-0.084,0.17-0.084C18.208,3.673,18.148,3.6,18.052,3.516z M8.354,6.181
	c0.785,0,1.422,0.667,1.422,1.489c0,0.823-0.636,1.488-1.422,1.488c-0.786,0-1.424-0.666-1.424-1.488
	C6.931,6.848,7.568,6.181,8.354,6.181z M20.964,6.181c0.786,0,1.424,0.667,1.424,1.489c0,0.823-0.638,1.489-1.424,1.489
	c-0.785,0-1.421-0.666-1.421-1.489C19.543,6.848,20.177,6.181,20.964,6.181z"/>
</svg>
