<?xml version="1.0" encoding="utf-8"?>
<!-- Generator: Adobe Illustrator 15.0.0, SVG Export Plug-In . SVG Version: 6.00 Build 0)  -->
<!DOCTYPE svg PUBLIC "-//W3C//DTD SVG 1.1//EN" "http://www.w3.org/Graphics/SVG/1.1/DTD/svg11.dtd">
<svg version="1.1" id="图层_1" xmlns="http://www.w3.org/2000/svg" xmlns:xlink="http://www.w3.org/1999/xlink" x="0px" y="0px"
	 width="28.844px" height="8.984px" viewBox="0 0 28.844 8.984" enable-background="new 0 0 28.844 8.984" xml:space="preserve">
<path fill="#E71F19" d="M23.865,5.86v0.301l-0.074,0.094v0.102c0,0,0.207,0.14,0.176,0.2c-0.033,0.062-0.243,0.13-0.243,0.13
	l-1.351,0.002l-0.01,0.064c-0.069-0.006-0.147-0.033-0.199-0.054c0.084-0.2,0.132-0.422,0.132-0.653c0-0.911-0.727-1.65-1.622-1.65
	c-0.899,0-1.624,0.739-1.624,1.65c0,0.191,0.032,0.374,0.093,0.545l-0.21-0.006l-0.01,0.11l-8.895-0.083L10,6.55L9.921,6.546
	C9.97,6.386,9.997,6.22,9.997,6.047c0-0.917-0.73-1.66-1.634-1.66c-0.9,0-1.633,0.743-1.633,1.66c0,0.146,0.021,0.283,0.055,0.418
	H6.559L6.542,6.52C5.517,6.427,4.375,6.438,4.375,6.438C4.247,6.375,4.017,5.983,4.017,5.983l-0.1-0.94l0.301-0.325l0.056-0.139
	l0.017-0.672C4.385,3.488,4.527,3.27,4.527,3.27c0.05-0.044,0.109-0.062,0.109-0.062L6.165,3.02c0,0,0.07-0.022,1.185-0.521
	c1.114-0.495,2.048-0.764,2.85-0.892c0.8-0.128,1.483-0.178,3.178-0.117c1.698,0.062,2.421,0.295,2.421,0.295
	c1.265,0.413,3.081,1.563,3.081,1.563c1.917,0.263,3.284,0.546,3.734,0.669c0.355,0.098,0.896,0.345,0.938,0.431
	c0.034,0.063,0.016,0.104,0.016,0.104c0.223,0.329,0.249,0.573,0.249,0.573l0.137,0.128c0.027,0.207,0,0.51,0,0.51L23.865,5.86z
	 M8.494,2.889l0.192,0.309l0.441-0.021L9.62,2.32C9.353,2.41,8.494,2.889,8.494,2.889z M12.956,1.859c0,0-1.745-0.07-2.992,0.32
	l-0.653,1.04l3.851,0.104L12.956,1.859z M17.204,3.413c-0.048-0.097-0.041-0.3,0.014-0.355c0.058-0.055,0.118-0.084,0.118-0.084
	s-0.626-0.475-1.367-0.732c-0.739-0.258-1.571-0.3-1.571-0.3l-0.886-0.048l0.363,1.456l3.521,0.196
	C17.397,3.546,17.252,3.511,17.204,3.413z M8.363,4.587c0.794,0,1.437,0.654,1.437,1.461S9.157,7.507,8.363,7.507
	S6.928,6.853,6.928,6.048S7.57,4.587,8.363,4.587z M20.67,4.587c0.795,0,1.438,0.654,1.438,1.461s-0.644,1.459-1.438,1.459
	c-0.791,0-1.436-0.652-1.436-1.459S19.88,4.587,20.67,4.587z"/>
</svg>
