<?xml version="1.0" encoding="utf-8"?>
<!-- Generator: Adobe Illustrator 16.0.0, SVG Export Plug-In . SVG Version: 6.00 Build 0)  -->
<!DOCTYPE svg PUBLIC "-//W3C//DTD SVG 1.1//EN" "http://www.w3.org/Graphics/SVG/1.1/DTD/svg11.dtd">
<svg version="1.1" id="图层_1" xmlns="http://www.w3.org/2000/svg" xmlns:xlink="http://www.w3.org/1999/xlink" x="0px" y="0px"
	 width="283.46px" height="283.46px" viewBox="0 0 283.46 283.46" enable-background="new 0 0 283.46 283.46" xml:space="preserve">
<path fill-rule="evenodd" clip-rule="evenodd" fill="#FFFCFA" stroke="#FFDAB6" stroke-miterlimit="10" d="M141.644,0
	c77.651,0,140.6,62.948,140.6,140.601c0,77.65-62.948,140.599-140.6,140.599s-140.6-62.948-140.6-140.599
	C1.044,62.948,63.992,0,141.644,0z"/>
<g>
	<g>
		<path fill="#FF8903" d="M141.211,160.548c-6.753-5.498-14.551-12.892-21.301-21.236c-4.739-5.843-8.933-11.984-4.604-16.303
			L84.942,92.78c-4.43,5.509-14.235,31.735,27.8,74.671c44.287,45.253,72.854,35.564,77.771,30.471l-29.607-29.519
			C156.769,172.521,151.442,168.856,141.211,160.548z M201.197,180.768v-0.026c0,0-23.099-22.987-23.109-22.996
			c-1.829-1.824-4.755-1.788-6.573,0.009l-8.374,8.364l29.684,29.602c0,0,8.388-8.341,8.373-8.353l0.022-0.014
			C203.14,185.438,202.946,182.521,201.197,180.768z M125.977,112.389v-0.02c1.919-1.923,1.741-4.834,0-6.573v-0.028
			c0,0-23.768-23.658-23.779-23.662c-1.831-1.833-4.757-1.789-6.57,0.004l-8.375,8.37l30.344,30.253
			C117.597,120.732,125.977,112.403,125.977,112.389z"/>
	</g>
</g>
</svg>
