<?xml version="1.0" encoding="utf-8"?>
<!-- Generator: Adobe Illustrator 16.0.0, SVG Export Plug-In . SVG Version: 6.00 Build 0)  -->
<!DOCTYPE svg PUBLIC "-//W3C//DTD SVG 1.1//EN" "http://www.w3.org/Graphics/SVG/1.1/DTD/svg11.dtd">
<svg version="1.1" id="图层_1" xmlns="http://www.w3.org/2000/svg" xmlns:xlink="http://www.w3.org/1999/xlink" x="0px" y="0px"
	 width="40px" height="40px" viewBox="0 0 40 40" enable-background="new 0 0 40 40" xml:space="preserve">
<g>
	<path fill-rule="evenodd" clip-rule="evenodd" fill="#8F9199" d="M37.429,23.51L37.429,23.51L21.232,36.976
		c-0.681,0.566-1.784,0.566-2.465,0L2.571,23.51l0,0c-0.7-0.617-1.202-1.411-1.202-2.195s0.503-1.554,1.202-1.803l0,0h7.212V3.886
		c0-1.328,1.076-2.404,2.404-2.404h15.625c1.328,0,2.404,1.077,2.404,2.404v15.625h7.212l0,0c0.698,0.249,1.202,1.019,1.202,1.803
		S38.17,22.827,37.429,23.51z"/>
</g>
</svg>
