<?xml version="1.0" encoding="utf-8"?>
<!-- Generator: Adobe Illustrator 16.0.0, SVG Export Plug-In . SVG Version: 6.00 Build 0)  -->
<!DOCTYPE svg PUBLIC "-//W3C//DTD SVG 1.1//EN" "http://www.w3.org/Graphics/SVG/1.1/DTD/svg11.dtd">
<svg version="1.1" id="图层_1" xmlns="http://www.w3.org/2000/svg" xmlns:xlink="http://www.w3.org/1999/xlink" x="0px" y="0px"
	 width="40px" height="40px" viewBox="0 0 40 40" enable-background="new 0 0 40 40" xml:space="preserve">
<g>
	<path fill-rule="evenodd" clip-rule="evenodd" fill="#FE9216" d="M10.5,17h1c1.104,0,2,0.896,2,2v9c0,1.104-0.896,2-2,2h-1
		c-1.104,0-2-0.896-2-2v-9C8.5,17.896,9.396,17,10.5,17z"/>
	<path fill-rule="evenodd" clip-rule="evenodd" fill="#FE9216" d="M29.5,17h1c1.104,0,2,0.896,2,2v9c0,1.104-0.896,2-2,2h-1
		c-1.104,0-2-0.896-2-2v-9C27.5,17.896,28.396,17,29.5,17z"/>
	<path fill-rule="evenodd" clip-rule="evenodd" fill="#FE9216" d="M35.5,29.317V35c0,1.104-0.896,2-2,2h-11h-5h-1v-1v-1
		c0-0.553,0.448-1,1-1h5c0.553,0,1,0.447,1,1h9c0.553,0,1-0.447,1-1v-4v-2v-3l0,0c0.164-0.808,0-1.644,0-2.5v-4.194V15.5
		C33.5,8.597,27.904,3,21,3h-1C13.096,3,7.5,8.597,7.5,15.5V18v4.5c0,0.856-0.164,1.692,0,2.5l0,0v5c-3.313,0-6-5.687-6-9
		c0-2.22,1.208-2.81,3-2.958V15c0-8.284,6.716-15,15-15h2c8.284,0,15,6.716,15,15v3.347c1.791,0.145,3,0.72,3,2.883
		C39.5,23.774,37.828,27.744,35.5,29.317z"/>
</g>
</svg>
