<?xml version="1.0" encoding="utf-8"?>
<!-- Generator: Adobe Illustrator 15.0.0, SVG Export Plug-In . SVG Version: 6.00 Build 0)  -->
<!DOCTYPE svg PUBLIC "-//W3C//DTD SVG 1.1//EN" "http://www.w3.org/Graphics/SVG/1.1/DTD/svg11.dtd">
<svg version="1.1" id="图层_1" xmlns="http://www.w3.org/2000/svg" xmlns:xlink="http://www.w3.org/1999/xlink" x="0px" y="0px"
	 width="28.156px" height="10.094px" viewBox="0 0 28.156 10.094" enable-background="new 0 0 28.156 10.094" xml:space="preserve">
<path fill="#E71F19" d="M23.727,6.608l-0.069,0.871c0,0,0.055-0.104-0.144,0.019l-1.57,0.163c0.149-0.29,0.234-0.619,0.234-0.967
	c0-1.149-0.922-2.082-2.061-2.082c-1.138,0-2.059,0.933-2.059,2.082c0,0.356,0.087,0.689,0.243,0.981L8.184,7.66
	c0.148-0.29,0.233-0.618,0.233-0.966c0-1.15-0.922-2.083-2.059-2.083C5.221,4.612,4.3,5.544,4.3,6.694
	c0,0.245-0.01,0.271,0.067,0.487L4.22,7.078L4.065,6.922c0,0-0.023-0.033-0.207-0.313L3.754,6.347L3.702,6.138V5.825
	c0,0-0.037-0.346,0.207-1.1c0.148-0.455,0.242-0.628,0.509-0.984C4.584,3.519,4.81,3.229,6.392,2.564
	C7.976,1.9,9.393,1.771,11.204,1.745c1.628-0.024,2.523,0.095,3.23,0.34c0.707,0.244,2.612,1.264,2.924,1.387
	c0.31,0.122,3.854,0.452,4.886,0.645c1.035,0.191,1.139,0.615,1.268,0.887C23.641,5.272,23.746,6.294,23.727,6.608z M8.916,2.398
	c0,0-1.085,0.25-1.293,0.442c0,0,0.354,0.385,0.715,0.515c0,0,0.825,0.028,1.888,0.064L9.668,2.246
	C9.203,2.327,8.916,2.398,8.916,2.398z M13.174,2.112c-1.242-0.147-2.484-0.025-3.303,0.102l0.574,1.215
	c1.686,0.056,3.848,0.127,4.342,0.138c0.063,0.001,0.124,0.002,0.187,0.004c-0.021-0.162-0.1-0.679-0.173-0.979
	C14.308,2.369,13.747,2.178,13.174,2.112z M14.976,2.674c0.026,0.12,0.096,0.456,0.169,0.898c0.7,0.01,1.314,0.01,1.314,0.01
	S15.846,3.093,14.976,2.674z M6.359,4.744c1.067,0,1.93,0.872,1.93,1.95c0,1.077-0.863,1.952-1.93,1.952
	c-1.065,0-1.93-0.875-1.93-1.952C4.428,5.616,5.293,4.744,6.359,4.744z M20.118,4.744c1.066,0,1.932,0.872,1.932,1.95
	c0,1.077-0.864,1.952-1.932,1.952c-1.065,0-1.931-0.875-1.931-1.952C18.188,5.616,19.052,4.744,20.118,4.744z"/>
</svg>
