<?xml version="1.0" encoding="utf-8"?>
<!-- Generator: Adobe Illustrator 16.0.0, SVG Export Plug-In . SVG Version: 6.00 Build 0)  -->
<!DOCTYPE svg PUBLIC "-//W3C//DTD SVG 1.1//EN" "http://www.w3.org/Graphics/SVG/1.1/DTD/svg11.dtd">
<svg version="1.1" id="图层_1" xmlns="http://www.w3.org/2000/svg" xmlns:xlink="http://www.w3.org/1999/xlink" x="0px" y="0px"
	 width="651.97px" height="651.97px" viewBox="0 0 651.97 651.97" enable-background="new 0 0 651.97 651.97" xml:space="preserve">
<g>
	<g>
		<path fill-rule="evenodd" clip-rule="evenodd" fill="#E5E5E5" d="M325.5,9.407C150.927,9.407,9.407,150.927,9.407,325.5
			S150.927,641.593,325.5,641.593S641.593,500.073,641.593,325.5S500.073,9.407,325.5,9.407z M325.5,620.236
			c-162.778,0-294.735-131.959-294.735-294.736c0-162.778,131.957-294.735,294.735-294.735
			c162.777,0,294.736,131.957,294.736,294.735C620.236,488.277,488.277,620.236,325.5,620.236z M463.977,441.939
			c-28.082-44.675-79.201-74.578-137.623-74.578c-58.42,0-109.541,29.903-137.623,74.578l0.333,0.191
			c-1.236,1.772-1.961,3.882-1.961,6.149c0,6.267,5.469,11.347,12.215,11.347c4.469,0,8.366-2.236,10.495-5.564l0.198,0.115
			c21.854-38.995,65.734-65.641,116.342-65.641c50.609,0,94.489,26.646,116.343,65.641l0.199-0.115
			c2.128,3.328,6.026,5.564,10.495,5.564c6.748,0,12.217-5.08,12.217-11.347c0-2.268-0.727-4.377-1.962-6.149L463.977,441.939z
			 M208.53,267.112c0-11.796-9.561-21.358-21.356-21.358s-21.358,9.562-21.358,21.358c0,11.794,9.562,21.356,21.358,21.356
			S208.53,278.906,208.53,267.112z M449.512,242.337c-11.795,0-21.356,9.562-21.356,21.358c0,11.794,9.562,21.356,21.356,21.356
			c11.796,0,21.359-9.562,21.359-21.356C470.871,251.899,461.308,242.337,449.512,242.337z"/>
	</g>
</g>
</svg>
