<?xml version="1.0" encoding="utf-8"?>
<!-- Generator: Adobe Illustrator 16.0.0, SVG Export Plug-In . SVG Version: 6.00 Build 0)  -->
<!DOCTYPE svg PUBLIC "-//W3C//DTD SVG 1.1//EN" "http://www.w3.org/Graphics/SVG/1.1/DTD/svg11.dtd">
<svg version="1.1" id="图层_1" xmlns="http://www.w3.org/2000/svg" xmlns:xlink="http://www.w3.org/1999/xlink" x="0px" y="0px"
	 width="229.61px" height="215.43px" viewBox="0 0 229.61 215.43" enable-background="new 0 0 229.61 215.43" xml:space="preserve">
<g>
	<g>
		<path fill="#FF8903" d="M0.428,0L115,100.564L229.572,215V0H0.428z M117.898,46.237l-11.982-3.553l-0.818-13.755
			C112.992,27.98,117.898,46.237,117.898,46.237z M197.534,87.612c-4.228-1.318-20.029-6.57-36.022-11.909v3.242
			c0,1.595-1.304,2.89-2.909,2.89c-1.607,0-2.909-1.295-2.909-2.89c0-1.498,1.149-2.714,2.619-2.859v-1.45
			c-1.975-0.661-3.942-1.318-5.879-1.966v3.387c-0.005,1.59-1.304,2.881-2.909,2.881c-1.607,0-2.909-1.294-2.909-2.889
			c0-1.497,1.149-2.713,2.619-2.86v-1.589c-8.592-2.875-16.318-5.463-21.176-7.089c-22.73-7.609-22.142-19.55-22.142-19.55
			s15.988,4.976,35.179,11.073l-1.867-27.105c6.409-6.298,17.728,20.268,25.739,34.752c13.938,4.507,26.908,8.802,34.396,11.519
			C218.257,82.056,206.88,90.526,197.534,87.612z"/>
	</g>
</g>
</svg>
