<?xml version="1.0" encoding="utf-8"?>
<!-- Generator: Adobe Illustrator 16.0.0, SVG Export Plug-In . SVG Version: 6.00 Build 0)  -->
<!DOCTYPE svg PUBLIC "-//W3C//DTD SVG 1.1//EN" "http://www.w3.org/Graphics/SVG/1.1/DTD/svg11.dtd">
<svg version="1.1" id="图层_1" xmlns="http://www.w3.org/2000/svg" xmlns:xlink="http://www.w3.org/1999/xlink" x="0px" y="0px"
	 width="32px" height="32px" viewBox="0 0 32 32" enable-background="new 0 0 32 32" xml:space="preserve">
<g>
	<path fill="#EAEAEA" d="M29.631,9.814c-0.543-0.437-1.125-0.831-1.745-1.162c0.404-0.119,0.734-0.161,0.734-0.161
		c1.434-0.264,1.058,1.037,1.058,1.037C29.682,9.639,29.655,9.725,29.631,9.814z M22.275,5.381c0,0-10.642-0.406-12.687,0
		c0,0-3.31,2.033-3.171,6.22h7.11c-1.178,1.474-1.993,3.245-2.327,5.184H7.474c0.142,0.844,0.347,1.524,0.577,2.071h2.979
		c0.003,0.35,0.018,0.696,0.052,1.038H8.606c0.515,0.766,0.982,1.036,0.982,1.036h1.65c0.138,0.718,0.347,1.409,0.615,2.074H5.36
		v2.072c-0.196,1.123-1.056,1.036-1.056,1.036H1.132c-0.984-0.136-1.058-1.036-1.058-1.036v-8.293
		c0.853-3.117,4.229-5.184,4.229-5.184c0.206-0.81-1.058-1.038-1.058-1.038C1.556,10.478,2.188,8.49,2.188,8.49
		C4.333,7.75,4.305,9.528,4.305,9.528h1.056c1.182-4.635,4.229-6.221,4.229-6.221h12.687c1.702,1.618,2.783,3.261,3.429,4.452
		c-0.575-0.168-1.167-0.29-1.773-0.366C23.483,6.573,22.937,5.828,22.275,5.381z M2.188,15.747c0,0-1.073,2.32,0,4.147
		c0,0,0.497,1.396,4.229,1.036v-1.036C6.417,19.895,6.758,16.191,2.188,15.747z M22.469,9.28c5.222,0,9.456,4.234,9.456,9.456
		c0,5.223-4.234,9.456-9.456,9.456s-9.456-4.234-9.456-9.456C13.013,13.515,17.247,9.28,22.469,9.28z M20.977,18.735v0.997
		c0,0.275,0.223,0.497,0.498,0.497h4.977c0.275,0,0.497-0.222,0.497-0.497v-0.997c0-0.275-0.222-0.497-0.497-0.497h-3.484v-4.479
		c0-0.274-0.222-0.498-0.497-0.498h-0.995c-0.276,0-0.498,0.223-0.498,0.498V18.735z"/>
</g>
</svg>
