<?xml version="1.0" encoding="utf-8"?>
<!-- Generator: Adobe Illustrator 16.0.0, SVG Export Plug-In . SVG Version: 6.00 Build 0)  -->
<!DOCTYPE svg PUBLIC "-//W3C//DTD SVG 1.1//EN" "http://www.w3.org/Graphics/SVG/1.1/DTD/svg11.dtd">
<svg version="1.1" id="图层_1" xmlns="http://www.w3.org/2000/svg" xmlns:xlink="http://www.w3.org/1999/xlink" x="0px" y="0px"
	 width="32px" height="32px" viewBox="0 0 32 32" enable-background="new 0 0 32 32" xml:space="preserve">
<g>
	<g>
		<path fill="#BABABA" d="M28.627,19.299c-2.25-0.76-6.146-1.959-10.334-3.223c-2.405-4.054-5.807-11.488-7.732-9.726l0.561,7.584
			c-5.767-1.706-10.57-3.098-10.57-3.098s-0.177,3.341,6.653,5.472c1.458,0.455,3.78,1.18,6.361,1.982v0.445
			c-0.441,0.043-0.786,0.381-0.786,0.799c0,0.449,0.391,0.809,0.873,0.809c0.483,0,0.873-0.361,0.874-0.807V18.59
			c0.583,0.184,1.173,0.367,1.768,0.549v0.406c-0.442,0.041-0.787,0.381-0.787,0.801c0,0.445,0.391,0.809,0.875,0.809
			c0.481,0,0.872-0.363,0.872-0.809v-0.904c4.807,1.494,9.555,2.963,10.822,3.33C30.885,23.588,34.305,21.219,28.627,19.299z
			 M4.151,11.193c0,0-1.473-5.108-3.846-4.843l0.246,3.848L4.151,11.193z"/>
	</g>
</g>
</svg>
