<?xml version="1.0" encoding="utf-8"?>
<!-- Generator: Adobe Illustrator 16.0.0, SVG Export Plug-In . SVG Version: 6.00 Build 0)  -->
<!DOCTYPE svg PUBLIC "-//W3C//DTD SVG 1.1//EN" "http://www.w3.org/Graphics/SVG/1.1/DTD/svg11.dtd">
<svg version="1.1" id="图层_1" xmlns="http://www.w3.org/2000/svg" xmlns:xlink="http://www.w3.org/1999/xlink" x="0px" y="0px"
	 width="32px" height="32px" viewBox="0 0 32 32" enable-background="new 0 0 32 32" xml:space="preserve">
<g>
	<g>
		<path fill="#BABABA" d="M27.647,9.428c-1.972,0.998-5.312,2.805-8.88,4.766c-4.223-1.085-11.302-3.751-11.416-1.293l5.315,4.666
			c-4.896,2.721-8.955,5.007-8.955,5.007s2.063,2.335,7.933-0.813c1.253-0.674,3.249-1.744,5.468-2.936l0.29,0.297
			c-0.263,0.322-0.269,0.779,0.005,1.061c0.291,0.295,0.785,0.275,1.102-0.049c0.316-0.322,0.336-0.824,0.047-1.121l-0.618-0.629
			c0.5-0.27,1.007-0.543,1.517-0.816l0.266,0.271c-0.264,0.323-0.269,0.779,0.005,1.058c0.291,0.296,0.784,0.277,1.101-0.045
			c0.316-0.324,0.337-0.826,0.046-1.124l-0.592-0.603c4.128-2.219,8.201-4.416,9.275-5.02C31.926,10.769,32.624,6.908,27.647,9.428z
			 M0.624,19.756l2.671,2.392l3.011-1.743C6.306,20.404,2.008,17.994,0.624,19.756z"/>
	</g>
</g>
</svg>
