<?xml version="1.0" encoding="utf-8"?>
<!-- Generator: Adobe Illustrator 16.0.0, SVG Export Plug-In . SVG Version: 6.00 Build 0)  -->
<!DOCTYPE svg PUBLIC "-//W3C//DTD SVG 1.1//EN" "http://www.w3.org/Graphics/SVG/1.1/DTD/svg11.dtd">
<svg version="1.1" id="图层_1" xmlns="http://www.w3.org/2000/svg" xmlns:xlink="http://www.w3.org/1999/xlink" x="0px" y="0px"
	 width="32px" height="32px" viewBox="0 0 32 32" enable-background="new 0 0 32 32" xml:space="preserve">
<g>
	<path fill="#444444" d="M31.797,17.105v8.426c-0.217,0.941-1.053,1.053-1.053,1.053h-3.159c-0.859-0.271-1.053-1.053-1.053-1.053
		v-2.107H5.468v2.107c-0.195,1.143-1.053,1.053-1.053,1.053h-3.16c-0.98-0.139-1.053-1.053-1.053-1.053v-8.426
		c0.849-3.166,4.212-5.265,4.212-5.265c0.206-0.824-1.053-1.054-1.053-1.054C1.678,10.699,2.309,8.68,2.309,8.68
		c2.135-0.753,2.106,1.053,2.106,1.053h1.053c1.178-4.709,4.213-6.318,4.213-6.318h12.638c3.206,3.106,4.212,6.318,4.212,6.318
		c0.488-0.861,2.106-1.053,2.106-1.053c1.428-0.268,1.053,1.053,1.053,1.053c0.081,1.403-2.105,1.053-2.105,1.053v1.053
		C30.087,13.087,31.797,17.105,31.797,17.105z M9.681,21.318h12.638c0.354-0.016,0.699-0.461,1.003-1.053H8.702
		C9.214,21.045,9.681,21.318,9.681,21.318z M8.148,19.213h15.63c0.393-1.055,0.647-2.107,0.647-2.107H7.575
		C7.714,17.963,7.92,18.654,8.148,19.213z M2.309,16.053c0,0-1.07,2.357,0,4.213c0,0,0.495,1.418,4.213,1.053v-1.053
		C6.521,20.266,6.861,16.504,2.309,16.053z M22.319,5.521c0,0-10.603-0.413-12.638,0c0,0-3.297,2.065-3.16,6.32h18.957
		C25.479,11.84,24.5,7.029,22.319,5.521z M25.479,21.318c0,0,5.185,0.27,5.266-2.105c0,0,1.187-4.396-2.106-3.162
		C28.638,16.053,25.278,16.125,25.479,21.318z M30.744,19.213c0,0,0.004-0.129,0.011-0.293
		C30.751,19.012,30.748,19.102,30.744,19.213z"/>
</g>
</svg>
