<?xml version="1.0" encoding="utf-8"?>
<!-- Generator: Adobe Illustrator 16.0.0, SVG Export Plug-In . SVG Version: 6.00 Build 0)  -->
<!DOCTYPE svg PUBLIC "-//W3C//DTD SVG 1.1//EN" "http://www.w3.org/Graphics/SVG/1.1/DTD/svg11.dtd">
<svg version="1.1" id="图层_1" xmlns="http://www.w3.org/2000/svg" xmlns:xlink="http://www.w3.org/1999/xlink" x="0px" y="0px"
	 width="230px" height="230px" viewBox="0 0 230 230" enable-background="new 0 0 230 230" xml:space="preserve">
<g>
	<path fill="#57A926" d="M114.819,228.126C52.335,228.126,1.5,177.069,1.5,114.312C1.5,51.556,52.335,0.5,114.819,0.5
		c10.971,0,21.815,1.572,32.235,4.671c2.231,0.663,3.503,3.018,2.842,5.256c-0.661,2.243-3.018,3.519-5.232,2.855
		c-9.645-2.869-19.685-4.324-29.844-4.324C56.979,8.958,9.921,56.22,9.921,114.312c0,58.093,47.058,105.357,104.898,105.357
		s104.897-47.264,104.897-105.357c0-24.28-7.991-47.096-23.111-65.98c-1.459-1.82-1.171-4.482,0.641-5.946
		c1.811-1.462,4.466-1.178,5.922,0.646c16.103,20.111,24.97,45.425,24.97,71.28C228.137,177.069,177.304,228.126,114.819,228.126z"
		/>
	<path fill="#57A926" d="M185.696,35.228c-0.968,0-1.94-0.333-2.732-1.015c-3.204-2.751-6.611-5.338-10.131-7.689
		c-1.937-1.294-2.463-3.919-1.174-5.865c1.291-1.944,3.905-2.466,5.839-1.178c3.799,2.54,7.48,5.333,10.938,8.303
		c1.768,1.519,1.977,4.188,0.463,5.964C188.068,34.725,186.886,35.228,185.696,35.228z"/>
	<path fill-rule="evenodd" clip-rule="evenodd" fill="#57A926" d="M185.632,68.867c2.467,2.472,2.467,6.481,0,8.954l-75.917,76.106
		c-2.467,2.473-6.465,2.473-8.932,0s-2.466-6.481,0-8.954L176.7,68.867C179.167,66.395,183.166,66.395,185.632,68.867z"/>
	<path fill-rule="evenodd" clip-rule="evenodd" fill="#57A926" d="M109.823,153.927c-2.467,2.473-6.465,2.473-8.932,0
		l-40.191-40.292l0,0c-2.467-2.472-2.467-6.481,0-8.954c2.466-2.472,6.465-2.472,8.931,0l0,0l40.191,40.292
		C112.29,147.445,112.29,151.454,109.823,153.927z"/>
</g>
</svg>
