<?xml version="1.0" encoding="utf-8"?>
<!-- Generator: Adobe Illustrator 16.0.0, SVG Export Plug-In . SVG Version: 6.00 Build 0)  -->
<!DOCTYPE svg PUBLIC "-//W3C//DTD SVG 1.1//EN" "http://www.w3.org/Graphics/SVG/1.1/DTD/svg11.dtd">
<svg version="1.1" id="图层_1" xmlns="http://www.w3.org/2000/svg" xmlns:xlink="http://www.w3.org/1999/xlink" x="0px" y="0px"
	 width="40px" height="40px" viewBox="0 0 40 40" enable-background="new 0 0 40 40" xml:space="preserve">
<g>
	<path fill-rule="evenodd" clip-rule="evenodd" fill="#8F9199" d="M34.5,39h-28c-1.657,0-3-1.343-3-3V4c0-1.657,1.343-3,3-3h23l8,8
		v27C37.5,37.657,36.156,39,34.5,39z M28.5,14.605c0-0.334-0.666-0.605-1-0.605h-14c-0.334,0-1,0.271-1,0.605v1
		c0,0.334,0.666,0.395,1,0.395h14c0.334,0,1-0.061,1-0.395V14.605z M28.5,20.5c0-0.334-0.666-0.5-1-0.5h-14c-0.334,0-1,0.166-1,0.5
		v1c0,0.334,0.666,0.5,1,0.5l14.109,0.052c-0.139-0.088,0.801-0.234,0.891-0.552V20.5z M28.5,26.395c0-0.334-0.666-0.395-1-0.395
		h-14c-0.334,0-1,0.061-1,0.395v1c0,0.334,0.666,0.605,1,0.605h14c0.334,0,1-0.271,1-0.605V26.395z"/>
</g>
<g>
	<path fill-rule="evenodd" clip-rule="evenodd" fill="#9FA1AA" d="M29.5,6.859v-5c0-0.301,0.057-0.586,0.14-0.859l7.86,7.859v1h-5
		C30.843,9.859,29.5,8.517,29.5,6.859z"/>
</g>
</svg>
