<?xml version="1.0" encoding="utf-8"?>
<!-- Generator: Adobe Illustrator 16.0.0, SVG Export Plug-In . SVG Version: 6.00 Build 0)  -->
<!DOCTYPE svg PUBLIC "-//W3C//DTD SVG 1.1//EN" "http://www.w3.org/Graphics/SVG/1.1/DTD/svg11.dtd">
<svg version="1.1" id="图层_1" xmlns="http://www.w3.org/2000/svg" xmlns:xlink="http://www.w3.org/1999/xlink" x="0px" y="0px"
	 width="40px" height="40px" viewBox="0 0 40 40" enable-background="new 0 0 40 40" xml:space="preserve">
<g>
	<path fill="#8F9199" d="M11.5,11.5l0.15-3.436c0.003-1.806,1.774-3.269,3.957-3.271H20c2.185,0.003,3.954,1.466,3.956,3.271
		L24.5,11.5l4.645,0.23V8.064C29.143,3.888,25.053,0.501,20,0.5h-4.393c-5.05,0.001-9.142,3.388-9.144,7.564L6.5,11.5H11.5z"/>
	<path fill="#8F9199" d="M37.77,28.538h-0.877c-0.402,0-0.828-0.314-0.947-0.698l-0.504-1.224c-0.189-0.354-0.111-0.876,0.171-1.161
		l0.622-0.621c0.285-0.285,0.285-0.75,0-1.034L35.2,22.767c-0.284-0.284-0.749-0.284-1.034,0l-0.623,0.621
		c-0.282,0.284-0.806,0.362-1.16,0.172l-1.223-0.504c-0.383-0.118-0.698-0.545-0.698-0.947v-0.877c0-0.401-0.33-0.731-0.73-0.731
		H28.27c-0.402,0-0.731,0.33-0.731,0.731v0.877c0,0.402-0.313,0.829-0.697,0.947l-1.224,0.504c-0.355,0.19-0.877,0.113-1.16-0.172
		l-0.623-0.621c-0.285-0.284-0.75-0.284-1.033,0L21.767,23.8c-0.284,0.284-0.284,0.749,0,1.033l0.621,0.622
		c0.285,0.285,0.362,0.807,0.171,1.161l-0.503,1.225c-0.118,0.384-0.545,0.698-0.948,0.698l-0.876-0.001
		c-0.402,0-0.731,0.328-0.731,0.731v1.461c0,0.402,0.329,0.731,0.731,0.731h0.876c0.403,0.001,0.828,0.315,0.947,0.698l0.504,1.224
		c0.189,0.354,0.113,0.879-0.171,1.161l-0.622,0.622c-0.283,0.284-0.283,0.749,0,1.034l1.035,1.034c0.283,0.284,0.748,0.284,1.033,0
		l0.623-0.622c0.282-0.283,0.805-0.361,1.157-0.17l1.227,0.504c0.384,0.119,0.697,0.545,0.697,0.947v0.875
		c0,0.401,0.329,0.73,0.731,0.73h1.462c0.4,0,0.73-0.329,0.73-0.73v-0.875c0-0.402,0.315-0.828,0.698-0.947l1.225-0.504
		c0.354-0.191,0.877-0.113,1.162,0.17l0.619,0.622c0.285,0.284,0.75,0.284,1.034,0l1.034-1.034c0.285-0.285,0.285-0.75,0-1.034
		l-0.622-0.622c-0.282-0.282-0.36-0.807-0.171-1.161l0.504-1.224c0.119-0.383,0.547-0.697,0.947-0.697h0.877
		c0.402,0,0.73-0.329,0.73-0.731V29.27C38.5,28.866,38.172,28.538,37.77,28.538 M32.656,29.999c0,2.019-1.637,3.653-3.654,3.653
		s-3.654-1.635-3.654-3.653c0-2.018,1.637-3.654,3.654-3.654S32.656,27.981,32.656,29.999"/>
	<path fill-rule="evenodd" clip-rule="evenodd" fill="#8F9199" d="M31.5,20.5v-1h-5v1v1l-1,1l-2-2l-4,4l2,2l-1,1h-2v5h2v1v3h-16
		c-1.657,0-3-1.343-3-3v-18c0-0.771,0.3-1.469,0.779-2h30.442c0.479,0.531,0.779,1.229,0.779,2v5.667L31.5,20.5z"/>
</g>
</svg>
