<?xml version="1.0" encoding="utf-8"?>
<!-- Generator: Adobe Illustrator 16.0.0, SVG Export Plug-In . SVG Version: 6.00 Build 0)  -->
<!DOCTYPE svg PUBLIC "-//W3C//DTD SVG 1.1//EN" "http://www.w3.org/Graphics/SVG/1.1/DTD/svg11.dtd">
<svg version="1.1" id="图层_1" xmlns="http://www.w3.org/2000/svg" xmlns:xlink="http://www.w3.org/1999/xlink" x="0px" y="0px"
	 width="36px" height="36px" viewBox="0 0 36 36" enable-background="new 0 0 36 36" xml:space="preserve">
<path fill-rule="evenodd" clip-rule="evenodd" fill="#8F9199" d="M35.321,17.93l-4.854,5.652h-0.182
	C30.195,23.824,29.958,24,29.676,24c-0.283,0-0.521-0.176-0.61-0.418h-0.04v-2.518h-5.633c-0.117,0-0.229-0.023-0.33-0.064h-6.537
	c-1.104,0-2-0.895-2-2v-3c0-1.104,0.896-2,2-2h6.537c0.102-0.041,0.213-0.064,0.33-0.064h5.633v-2.517h0.04
	C29.154,11.176,29.393,11,29.676,11c0.282,0,0.52,0.176,0.609,0.419h0.182l4.854,5.651C35.525,17.308,35.525,17.693,35.321,17.93z
	 M24.525,8.267C22.554,6.847,20.141,6,17.525,6c-6.627,0-12,5.373-12,12c0,6.626,5.373,12,12,12c3.039,0,5.805-1.139,7.919-3h6.484
	c-3.005,4.799-8.323,8-14.403,8c-9.389,0-17-7.611-17-17c0-9.389,7.611-17,17-17c5.646,0,10.635,2.764,13.727,7h-6.727V8.267z"/>
</svg>
