<?xml version="1.0" encoding="utf-8"?>
<!-- Generator: Adobe Illustrator 16.0.0, SVG Export Plug-In . SVG Version: 6.00 Build 0)  -->
<!DOCTYPE svg PUBLIC "-//W3C//DTD SVG 1.1//EN" "http://www.w3.org/Graphics/SVG/1.1/DTD/svg11.dtd">
<svg version="1.1" id="图层_1" xmlns="http://www.w3.org/2000/svg" xmlns:xlink="http://www.w3.org/1999/xlink" x="0px" y="0px"
	 width="229.61px" height="215.43px" viewBox="0 0 229.61 215.43" enable-background="new 0 0 229.61 215.43" xml:space="preserve">
<g>
	<g>
		<path fill="#FF8903" d="M0,0l114.805,100.769L229.61,215.438V0H0z M104.884,61.505c5.412-5.145,19.688,5.69,19.688,5.69
			l-11.108,4.093L104.884,61.505z M208.671,53.22c-7.197,2.541-50.886,16.936-65.848,21.871c-21.573,7.115-28.04-2.107-28.04-2.107
			s14.953-5.286,32.981-11.54l-17.104-19.133c1.197-8.295,25.125,5.123,39.562,11.401c13.135-4.479,25.418-8.576,32.644-10.763
			C221.106,37.43,217.416,50.134,208.671,53.22z"/>
	</g>
</g>
</svg>
