<?xml version="1.0" encoding="utf-8"?>
<!-- Generator: Adobe Illustrator 16.0.0, SVG Export Plug-In . SVG Version: 6.00 Build 0)  -->
<!DOCTYPE svg PUBLIC "-//W3C//DTD SVG 1.1//EN" "http://www.w3.org/Graphics/SVG/1.1/DTD/svg11.dtd">
<svg version="1.1" id="图层_1" xmlns="http://www.w3.org/2000/svg" xmlns:xlink="http://www.w3.org/1999/xlink" x="0px" y="0px"
	 width="116px" height="116px" viewBox="0 0 116 116" enable-background="new 0 0 116 116" xml:space="preserve">
<g>
	<path fill-rule="evenodd" clip-rule="evenodd" fill="#F0F0F0" d="M58.066,0.245c31.65,0,57.308,25.658,57.308,57.31
		s-25.657,57.31-57.308,57.31S0.759,89.206,0.759,57.555S26.416,0.245,58.066,0.245z"/>
</g>
<g>
	<path fill-rule="evenodd" clip-rule="evenodd" fill="#73B210" d="M38.681,54.696l14.6,14.599c1.045,1.046,0.784,3.001-0.583,4.368
		l-0.707,0.707c-1.367,1.366-3.322,1.628-4.368,0.582l-14.6-14.6c-1.045-1.045-0.784-3,0.583-4.367l0.707-0.707
		C35.68,53.912,37.635,53.651,38.681,54.696z"/>
	<path fill-rule="evenodd" clip-rule="evenodd" fill="#73B210" d="M46.625,69.383l29.699-29.699c1.172-1.171,3.071-1.171,4.242,0
		l1.415,1.414c1.171,1.172,1.171,3.071,0,4.243L52.283,75.039c-1.172,1.172-3.071,1.172-4.243,0l-1.415-1.414
		C45.454,72.453,45.454,70.554,46.625,69.383z"/>
</g>
</svg>
