<?xml version="1.0" encoding="utf-8"?>
<!-- Generator: Adobe Illustrator 16.0.0, SVG Export Plug-In . SVG Version: 6.00 Build 0)  -->
<!DOCTYPE svg PUBLIC "-//W3C//DTD SVG 1.1//EN" "http://www.w3.org/Graphics/SVG/1.1/DTD/svg11.dtd">
<svg version="1.1" id="图层_1" xmlns="http://www.w3.org/2000/svg" xmlns:xlink="http://www.w3.org/1999/xlink" x="0px" y="0px"
	 width="119.06px" height="130.39px" viewBox="0 0 119.06 130.39" enable-background="new 0 0 119.06 130.39" xml:space="preserve">
<path fill-rule="evenodd" clip-rule="evenodd" fill="#798082" d="M117.241,71.3c-0.24,0.859,0.159,4.302,0.159,4.302
	c-0.222,0.038-0.578,0.049-0.87,0.052c-7.366-18.215-12.105-20.015-12.105-20.015c-10.197-3.067-33.859-2.868-45.473,0
	c0,0-5.248,2.242-12.167,20.015c-0.306,0-0.719-0.011-0.97-0.052c0,0,0.402-3.442,0.162-4.302c-0.243-0.861-0.946-1.17-2.113-1.1
	c-1.167,0.07-5.09,0.884-6.077,2.054c0,0-0.403,0.481-0.384,1.005c0,0-0.2,0.503-0.119,0.838s0.281,0.43,0.281,0.43
	s-0.041,0.908,0.846,1.768c0.884,0.861,2.997,1.361,4.91,1.65c1.278,0.189,2.078,0.271,2.491,0.306
	c-0.119,0.321-0.232,0.607-0.351,0.943c0,0-1.583,1.878-2.873,2.771c-1.286,0.89-7.217,6.434-8.987,12.555
	c-1.77,6.117-1.286,13.829-1.286,13.829v7.854h-0.089v7.385c0,2.038,1.708,3.691,3.815,3.691H7.355c-3.294,0-5.961-2.65-5.961-5.92
	V5.92C1.394,2.651,4.061,0,7.355,0h104.29c3.294,0,5.961,2.651,5.961,5.92v64.917C117.481,70.989,117.303,71.078,117.241,71.3z
	 M47.489,123.588v-3.69h68.688v3.69c0,0.446,0.113,0.865,0.262,1.26c-1.084,1.467-2.818,2.432-4.794,2.432H43.674
	C45.781,127.279,47.489,125.626,47.489,123.588z M117.605,78.394c-0.021-0.052-0.04-0.104-0.062-0.157
	c0.016,0,0.046-0.003,0.062-0.006V78.394z M117.605,96.292v11.527c-4.442,0.473-6.938,0.586-7.109,0.34c0,0,1.973-5.302,3.019-9.7
	C113.515,98.459,115.282,97.399,117.605,96.292z M99.496,110.173c-1.557,0-17.177,0-17.177,0h-0.136c0,0-15.515,0-17.068,0
	c-1.557,0-4.832-0.128-6.118-1.403c-0.608-0.6-1.497-2.875-2.272-5.109h51.162c-0.775,2.234-1.668,4.51-2.275,5.109
	C104.325,110.045,101.053,110.173,99.496,110.173z M55.133,98.707c-0.108-0.445,0.643-0.638,0.643-0.638h26.462h0.026h26.567
	c0,0,0.751,0.192,0.644,0.638c0,0-0.46,1.557-1.078,3.438H56.211C55.593,100.264,55.133,98.707,55.133,98.707z M44.674,108.046
	c-6.661-0.578-8.879-2.705-8.879-2.705s0.403-5.545,1.086-8.555c0.684-3.013,1.651-2.964,1.651-2.964
	c4.467,0.384,11.889,4.637,11.889,4.637c1.046,4.398,3.019,9.7,3.019,9.7C53.239,108.448,48.548,108.381,44.674,108.046z
	 M61.035,60.846c15.072-1.671,27.855-1.58,41.412,0.069c0.872,0.107,1.802,0.512,2.372,1.481c1.643,2.787,5.609,7.41,8.071,15.171
	c0,0-0.054,0.445-0.751,0.384H51.967c-0.697,0.062-0.751-0.384-0.751-0.384c1.538-6.715,5.453-12.035,7.263-15.07
	C59.2,61.289,59.808,60.981,61.035,60.846z"/>
</svg>
