<?xml version="1.0" encoding="utf-8"?>
<!-- Generator: Adobe Illustrator 16.0.0, SVG Export Plug-In . SVG Version: 6.00 Build 0)  -->
<!DOCTYPE svg PUBLIC "-//W3C//DTD SVG 1.1//EN" "http://www.w3.org/Graphics/SVG/1.1/DTD/svg11.dtd">
<svg version="1.1" id="图层_1" xmlns="http://www.w3.org/2000/svg" xmlns:xlink="http://www.w3.org/1999/xlink" x="0px" y="0px"
	 width="35px" height="33px" viewBox="0 0 35 33" enable-background="new 0 0 35 33" xml:space="preserve">
<g>
	<path fill="#798082" d="M23.669,3.924c0.295,1.18,0.324,1.278,0.297,2.489c-0.011,0.467-0.28,2.626-0.208,3.288
		c0.061,0.546,0.197,0.589,0.414,1.04c0.379,0.783,0.252,1.863,0.107,2.653c-0.08,0.432-0.247,1.047-0.502,1.4
		c-0.28,0.389-0.842,0.392-1.09,0.845c-0.358,0.652-0.156,1.57-0.382,2.275c-0.256,0.799-0.909,0.855-0.958,1.902
		c0.32,0.045,0.639,0.09,0.958,0.135c0.32,0.678,0.907,2.037,1.505,2.447c0.502,0.137,1.004,0.271,1.505,0.408
		c1.758,0.715,3.711,1.572,5.473,2.311c1.604,0.672,3.524,0.912,4.104,2.582c0,1.135,0.107,3.814,0.078,5.301H0.029
		C0,31.514,0.107,28.834,0.107,27.699c0.58-1.67,2.5-1.91,4.104-2.582c1.761-0.738,3.714-1.596,5.472-2.311
		c0.501-0.137,1.003-0.271,1.505-0.408c0.599-0.41,1.185-1.77,1.505-2.447l0.712-0.172c-0.162-0.893-0.718-0.963-0.95-1.594
		c-0.091-0.951-0.182-1.904-0.273-2.854c0.004,0.045-0.655-0.12-0.741-0.173c-0.929-0.579-0.948-2.928-1.038-3.905
		c-0.041-0.447,0.584-0.812,0.411-1.631c-1.019-4.794,0.44-7.038,2.747-7.782c1.601-0.645,4.589-1.839,7.376-0.136l0.691,0.637
		l1.12,0.191C23.311,2.855,23.669,3.924,23.669,3.924z"/>
</g>
</svg>
