<?xml version="1.0" encoding="utf-8"?>
<!-- Generator: Adobe Illustrator 16.0.0, SVG Export Plug-In . SVG Version: 6.00 Build 0)  -->
<!DOCTYPE svg PUBLIC "-//W3C//DTD SVG 1.1//EN" "http://www.w3.org/Graphics/SVG/1.1/DTD/svg11.dtd">
<svg version="1.1" id="图层_1" xmlns="http://www.w3.org/2000/svg" xmlns:xlink="http://www.w3.org/1999/xlink" x="0px" y="0px"
	 width="30px" height="30px" viewBox="0 0 30 30" enable-background="new 0 0 30 30" xml:space="preserve">
<path fill-rule="evenodd" clip-rule="evenodd" fill="#FF8903" d="M15,0c8.284,0,15,6.716,15,15s-6.716,15-15,15S0,23.284,0,15
	S6.716,0,15,0z"/>
<path fill="#FFFFFF" d="M14.487,17.368c0.186,0.402,0.519,0.604,0.997,0.604c0.47,0,0.807-0.209,1.01-0.624
	c0.203-0.418,0.337-1.016,0.398-1.795l0.571-6.552c0.062-0.603,0.094-1.196,0.094-1.781c0-0.992-0.13-1.752-0.387-2.279
	c-0.257-0.527-0.765-0.791-1.527-0.791c-0.629,0-1.136,0.206-1.522,0.618c-0.385,0.412-0.578,0.986-0.578,1.721
	c0,0.541,0.04,1.431,0.12,2.671l0.425,6.366C14.168,16.352,14.302,16.964,14.487,17.368z M16.96,23.739
	c0.397-0.353,0.598-0.84,0.598-1.461c0-0.55-0.197-1.016-0.592-1.402c-0.395-0.385-0.869-0.578-1.429-0.578
	c-0.558,0-1.029,0.193-1.415,0.578c-0.385,0.387-0.578,0.853-0.578,1.402c0,0.63,0.201,1.119,0.604,1.47
	c0.403,0.35,0.875,0.523,1.416,0.523C16.097,24.271,16.562,24.094,16.96,23.739z"/>
</svg>
