<?xml version="1.0" encoding="utf-8"?>
<!-- Generator: Adobe Illustrator 16.0.0, SVG Export Plug-In . SVG Version: 6.00 Build 0)  -->
<!DOCTYPE svg PUBLIC "-//W3C//DTD SVG 1.1//EN" "http://www.w3.org/Graphics/SVG/1.1/DTD/svg11.dtd">
<svg version="1.1" id="图层_1" xmlns="http://www.w3.org/2000/svg" xmlns:xlink="http://www.w3.org/1999/xlink" x="0px" y="0px"
	 width="226.77px" height="212.6px" viewBox="0 0 226.77 212.6" enable-background="new 0 0 226.77 212.6" xml:space="preserve">
<path fill-rule="evenodd" clip-rule="evenodd" fill="#FF8903" d="M3.754-0.19H226.77v209.077L3.754-0.19L3.754-0.19z"/>
<path fill-rule="evenodd" clip-rule="evenodd" fill="#FFFFFF" d="M205.059,88.034v5.898c0,9.317-10.937,9.21-10.937,0v-5.898
	h-49.409v5.898c0,9.21-10.937,9.317-10.937,0v-5.898h-8.08V64.346c0-6.36,5.041-9.719,7.891-10.087l7.184-18.618
	c1.327-3.484,4.188-6.451,9.52-6.558v0.384h41.095c3.541,0.918,5.617,3.37,6.688,6.174l7.182,18.618
	c2.845,0.368,7.889,3.727,7.885,10.087v23.688H205.059z M137.085,67.276c0,3.544,2.775,6.416,6.199,6.416
	c3.422,0,6.197-2.872,6.197-6.416c0-3.545-2.775-6.417-6.197-6.417C139.86,60.859,137.085,63.731,137.085,67.276z M192.403,39.416
	c-0.678-2.058-1.692-3.547-4.051-3.571H150.49c-2.372,0.024-3.384,1.513-4.062,3.571l-5.406,14.405h56.79L192.403,39.416z
	 M195.553,60.859c-3.421,0-6.197,2.873-6.197,6.417c0,3.544,2.776,6.416,6.197,6.416c3.427,0,6.202-2.872,6.202-6.416
	C201.755,63.731,198.979,60.859,195.553,60.859z"/>
</svg>
